<?xml version="1.0" encoding="UTF-8" standalone="no"?>
<svg width="212px" height="235px" viewBox="0 0 212 235" version="1.1" xmlns="http://www.w3.org/2000/svg" xmlns:xlink="http://www.w3.org/1999/xlink" xmlns:sketch="http://www.bohemiancoding.com/sketch/ns">
    <!-- Generator: Sketch 3.3.3 (12081) - http://www.bohemiancoding.com/sketch -->
    <title>Untitled</title>
    <desc>Created with Sketch.</desc>
    <defs></defs>
    <g id="Page-1" stroke="none" stroke-width="1" fill="none" fill-rule="evenodd" sketch:type="MSPage">
        <g id="Fill-581-+-R+P" sketch:type="MSLayerGroup">
            <path d="M1.43520686,162.370964 C3.45906933,160.303347 7.64507061,161.684274 13.1195558,163.555694 C17.9278005,162.235136 28.2733832,163.231214 45.3819349,164.38576 L45.4070761,164.38576 L45.5390671,164.332937 C30.0898312,164.355576 1.23407767,139.883736 13.1886939,127.591221 C14.2131957,126.527228 17.7958094,128.647668 22.164084,131.688726 C23.6411265,132.21695 25.5455685,133.303581 27.8271278,134.842975 C32.383961,137.785934 38.204137,142.275834 48.009185,145.407445 L48.3548758,145.513089 C59.9700865,147.226043 71.491018,147.180766 80.2212819,146.675181 C82.7542526,143.739768 92.3141744,142.494669 101.352417,141.02319 L102.515196,140.238401 C100.516474,140.170486 98.6748851,139.91392 96.9967134,139.483796 C76.6072417,138.789559 58.2542031,127.628951 59.4044107,122.535368 C60.8186003,116.18914 82.3519942,120.618671 95.5196709,121.214809 C94.6837277,121.101618 93.8666404,120.965789 92.9929855,120.762046 C86.3180105,119.275474 81.6103303,116.15141 78.5053985,113.291457 C59.3415578,103.640059 52.0694805,86.9104668 56.085779,80.7377981 C59.0587199,76.1799841 79.4041945,98.455923 92.0753335,101.459251 C90.8434172,100.48581 89.6429274,99.4595476 88.4864345,98.4031006 C76.1107041,91.2041691 72.8800664,82.6243106 73.2948954,80.1793904 C63.6469795,64.8458173 60.6866093,50.1385663 66.808479,50.8252568 C70.026546,51.2101054 79.8504499,65.411771 87.8013382,75.7800434 C86.2928693,73.6369653 85.2055146,71.9013738 84.6964064,70.860019 C81.6920391,64.7854489 84.4638507,61.9481342 92.6284388,67.834053 C99.8062368,73.0106432 109.736991,74.7386886 112.012265,75.0858068 C109.158744,72.8672682 106.2298,69.9016707 102.823175,65.9399945 C96.2047672,57.6921621 93.7786464,51.9948946 93.6780818,49.5046981 C90.7617085,42.8717204 89.9823329,37.5442093 92.4210243,36.3443873 C94.4511721,35.3558548 109.372444,54.8623935 116.129128,58.9221682 C114.32525,56.3640574 112.483661,53.2626309 110.415802,49.2405864 C106.060098,40.0721359 105.620127,33.9447435 106.254941,31.8016654 C103.332283,18.6489006 103.024304,6.15264223 107.731984,6.15264223 C111.390021,6.15264223 116.273689,35.5067758 122.822959,40.6079055 C122.533835,39.5967348 122.250997,38.4950115 121.974445,37.3253738 C121.43391,34.2994079 121.289348,31.8318496 121.320775,29.8019622 C119.831162,16.3624476 121.132216,-0.472789463 126.443284,0.0101577223 C131.119538,3.97183385 127.914041,62.4310814 148.812621,79.8247261 C148.812621,79.8247261 149.3343,80.2246667 150.170243,80.9113573 C157.505173,61.5029173 165.795467,34.1258487 187.083735,57.5336951 L187.134017,57.5035109 C187.134017,57.5035109 190.289231,56.303689 191.866838,57.4657806 C195.342602,57.4205043 199.673165,57.5035109 200,58.2052935 C199.409183,59.6314969 191.282307,61.5934699 188.441357,65.1853896 L188.391075,65.1476593 C185.927242,74.5273992 175.072551,80.0511076 175.034839,84.7824808 C174.896563,102.651527 197.133909,111.125741 177.34154,140.366683 C172.904127,146.894016 161.810595,159.473281 135.274112,164.883799 C135.274112,164.883799 119.366051,168.083324 102.452343,165.28374 C99.7622398,165.925154 97.4932511,167.683384 95.8967881,171.411132 C87.8641911,190.034783 96.4247523,222.218685 84.4072832,232.254931 C78.4425456,237.227778 75.4004666,220.128429 78.3796927,210.363841 C70.3785221,223.486422 44.9293943,240.683869 35.1432021,233.168003 C26.5009322,226.535026 60.3472038,214.551899 68.8700532,193.57388 C66.720485,195.973524 64.401214,198.486359 61.8116757,201.15766 C50.2027502,212.522011 40.5296932,216.521418 34.6403791,217.162832 C20.0522275,220.535916 10.7248613,214.748096 7.97190554,209.164019 C5.69034629,204.583567 20.894456,203.753501 27.1168903,201.527417 C37.154494,197.980773 44.2631538,192.38915 52.8300003,185.544883 C26.9534729,198.018504 -7.4710451,171.441316 1.43520686,162.370964" id="Fill-581" fill="#FFFFFF" sketch:type="MSShapeGroup"></path>
            <path d="M45.2086994,110.952 C47.7673475,110.952 49.8995224,110.688003 51.6052878,110.16 C53.3110533,109.631997 54.6614307,108.888005 55.6564606,107.928 C56.6514904,106.967995 57.3622154,105.840006 57.7886567,104.544 C58.2150981,103.247994 58.4283156,101.832008 58.4283156,100.296 C58.4283156,98.7599923 58.2150981,97.3440065 57.7886567,96.048 C57.3622154,94.7519935 56.6514904,93.6240048 55.6564606,92.664 C54.6614307,91.7039952 53.3110533,90.9600026 51.6052878,90.432 C49.8995224,89.9039974 47.7673475,89.64 45.2086994,89.64 L26.7652026,89.64 L26.7652026,110.952 L45.2086994,110.952 Z M47.9805544,77.256 C51.3920853,77.256 54.4837388,77.6639959 57.2556077,78.48 C60.0274765,79.2960041 62.4084051,80.5919911 64.3984648,82.368 C66.3885245,84.1440089 67.9165832,86.4479858 68.9826866,89.28 C70.04879,92.1120142 70.5818337,95.5919794 70.5818337,99.72 C70.5818337,106.056032 69.19592,110.903983 66.4240512,114.264 C63.6521823,117.624017 59.9208763,119.879994 55.2300213,121.032 L69.4091258,148.392 C69.9066407,149.352005 70.4929888,149.927999 71.1681876,150.12 C71.8433865,150.312001 72.4652708,150.408 73.0338593,150.408 L73.0338593,153 L53.0978252,153 L53.0978252,150.408 C53.7374872,150.408 54.288299,150.264001 54.7502772,149.976 C55.2122553,149.687999 55.4432409,149.304002 55.4432409,148.824 C55.4432409,148.343998 55.3010959,147.792003 55.0168017,147.168 C54.7325075,146.543997 54.3060725,145.704005 53.737484,144.648 L42.0104051,122.184 L26.7652026,122.184 L26.7652026,147.816 C26.7652026,148.680004 26.9961882,149.327998 27.4581663,149.76 C27.9201445,150.192002 28.7552463,150.408 29.9634968,150.408 L29.9634968,153 L11.52,153 L11.52,150.408 C13.5811333,150.408 14.6116844,149.544009 14.6116844,147.816 L14.6116844,82.44 C14.6116844,80.7119914 13.5811333,79.848 11.52,79.848 L11.52,77.256 L47.9805544,77.256 Z M133.268401,109.704 C133.836989,109.704 134.245656,109.416003 134.494414,108.84 C134.743171,108.263997 134.867548,107.208008 134.867548,105.672 L136.786525,105.672 L136.786525,124.968 L134.867548,124.968 C134.867548,122.279987 134.334504,120.936 133.268401,120.936 L116.104222,120.936 L116.104222,142.248 C116.104222,143.016004 116.317439,143.567998 116.743881,143.904 C117.170322,144.240002 117.952119,144.408 119.089296,144.408 L119.089296,147 L104.803582,147 L104.803582,144.408 C106.793642,144.408 107.788657,143.688007 107.788657,142.248 L107.788657,120.936 L90.6244776,120.936 C90.0558891,120.936 89.6472223,121.223997 89.3984648,121.8 C89.1497074,122.376003 89.0253305,123.431992 89.0253305,124.968 L87.1063539,124.968 L87.1063539,105.672 L89.0253305,105.672 C89.0253305,108.360013 89.5583742,109.704 90.6244776,109.704 L107.788657,109.704 L107.788657,88.392 C107.788657,87.6239962 107.575439,87.0720017 107.148998,86.736 C106.722557,86.3999983 105.940759,86.232 104.803582,86.232 L104.803582,83.64 L119.089296,83.64 L119.089296,86.232 C117.099237,86.232 116.104222,86.9519928 116.104222,88.392 L116.104222,109.704 L133.268401,109.704 Z M190.837697,108.936 C193.183125,108.936 195.190923,108.312006 196.861151,107.064 C198.53138,105.815994 199.366482,103.368018 199.366482,99.72 C199.366482,96.0719818 198.53138,93.6240062 196.861151,92.376 C195.190923,91.1279938 193.183125,90.504 190.837697,90.504 L168.129808,90.504 L168.129808,108.936 L190.837697,108.936 Z M152.031727,153 L152.031727,150.408 C154.661449,150.408 155.97629,149.544009 155.97629,147.816 L155.97629,82.44 C155.97629,80.7119914 154.661449,79.848 152.031727,79.848 L152.031727,77.256 L189.55838,77.256 C196.381441,77.256 201.747415,78.959983 205.656461,82.368 C209.565506,85.776017 211.52,91.5599592 211.52,99.72 C211.52,107.880041 209.565506,113.663983 205.656461,117.072 C201.747415,120.480017 196.381441,122.184 189.55838,122.184 L168.129808,122.184 L168.129808,147.816 C168.129808,149.544009 169.266968,150.408 171.541322,150.408 L171.541322,153 L152.031727,153 Z" id="R+P" fill="#000000" sketch:type="MSShapeGroup"></path>
        </g>
    </g>
</svg>