<?xml version="1.0" encoding="UTF-8" standalone="no"?>
<svg width="800px" height="416px" viewBox="0 0 800 416" version="1.1" xmlns="http://www.w3.org/2000/svg" xmlns:xlink="http://www.w3.org/1999/xlink" xmlns:sketch="http://www.bohemiancoding.com/sketch/ns">
    <!-- Generator: Sketch 3.3.3 (12081) - http://www.bohemiancoding.com/sketch -->
    <title>wedding</title>
    <desc>Created with Sketch.</desc>
    <defs></defs>
    <g id="logo" stroke="none" stroke-width="1" fill="none" fill-rule="evenodd" sketch:type="MSPage">
        <g sketch:type="MSLayerGroup">
            <g>
                <path d="M789.558692,160.30074 C787.941743,158.906766 784.565918,159.837778 780.14592,161.099477 C776.268284,160.209165 767.914892,160.880714 754.122673,161.659101 L754.097329,161.659101 L753.990884,161.623489 C766.460145,161.638751 789.7361,145.140005 780.100301,136.852476 C779.25381,136.135139 776.379797,137.564725 772.841771,139.614985 C771.645533,139.97111 770.124891,140.703709 768.289984,141.741558 C764.610031,143.725681 759.921386,146.752741 751.998843,148.864051 L751.735265,148.935276 C742.342769,150.090138 733.061786,150.059613 726.031353,149.71875 C723.983555,147.739715 716.278971,146.900278 708.979891,145.908217 L708.057369,145.379117 C709.669249,145.33333 711.144271,145.160355 712.502711,144.870368 C728.940847,144.402318 743.731621,136.877913 742.824305,133.443854 C741.683824,129.165271 724.318097,132.15163 713.698949,132.553542 C714.362963,132.47723 715.021907,132.385655 715.716334,132.248293 C721.11968,131.246056 724.911147,129.139833 727.425274,127.211672 C742.864856,120.704766 748.739601,109.42579 745.490497,105.264219 C743.087883,102.191372 726.675091,117.209657 716.461448,119.23448 C717.460003,118.578193 718.428145,117.886294 719.365874,117.174045 C729.346352,112.320575 731.951718,106.536093 731.607039,104.887744 C739.387655,94.5499544 741.7852,84.6344266 736.853252,85.0973887 C734.242818,85.3568509 726.330412,94.9315166 719.903167,101.921735 C721.134887,100.476886 722.016859,99.3067623 722.422363,98.604688 C724.850321,94.5092545 722.60484,92.5963564 716.020462,96.5646025 C710.221749,100.054624 702.207967,101.21966 700.388266,101.453685 C702.699641,99.9579616 705.056636,97.9585761 707.808997,95.2876412 C713.131243,89.7270092 715.087802,85.8859504 715.17904,84.2070771 C717.530966,79.7351689 718.154429,76.1433975 716.19787,75.3344858 C714.565715,74.6680239 702.532371,87.8191985 697.078336,90.5562709 C698.533083,88.83161 699.992899,86.7406496 701.675743,84.0290147 C705.188425,77.8477083 705.538172,73.7166623 705.036361,72.2718138 C707.393355,63.4043099 707.646795,54.9794182 703.855329,54.9794182 C700.885009,54.9794182 696.946547,74.7697738 691.659783,78.2089204 C691.903086,77.5271961 692.136251,76.7844218 692.354209,75.9958601 C692.779989,73.9557746 692.911778,72.2921637 692.871228,70.9236276 C694.077603,61.8627989 693.043567,50.5125976 688.74522,50.8381972 C684.989235,53.5091321 687.564188,92.921956 670.71041,104.648632 C670.71041,104.648632 670.299837,104.918269 669.610479,105.381231 C663.715459,92.2961941 657.014498,73.8387622 639.841385,89.6201718 L639.82111,89.5998218 C639.82111,89.5998218 637.266432,88.7909101 635.994162,89.5743843 C633.20125,89.5438593 629.703774,89.5998218 629.440196,90.0729588 C629.916664,91.0344954 636.455423,92.3572441 638.756661,94.7788917 L638.792142,94.7534542 C640.779114,101.077211 649.527872,104.801257 649.573491,107.991116 C649.669799,120.038304 631.751571,125.751561 647.71324,145.465605 C651.281679,149.866288 660.22812,158.347142 681.628617,161.994876 C681.628617,161.994876 694.467901,164.151974 708.097919,162.264513 C710.272437,162.69695 712.097207,163.882337 713.389752,166.395559 C719.872754,178.951497 712.963972,200.649663 722.660597,207.416031 C727.465825,210.768691 729.924195,199.240427 727.516513,192.657208 C733.964033,201.504362 754.497764,213.098763 762.379757,208.031618 C769.354433,203.55971 742.063984,195.480768 735.190684,181.337532 C736.914078,182.955355 738.784467,184.649491 740.882953,186.450464 C750.245036,194.112232 758.040859,196.808604 762.780192,197.241041 C774.555027,199.515152 782.066997,195.613043 784.287134,191.848297 C786.12711,188.760187 773.86567,188.200563 768.85769,186.699752 C760.757739,184.308629 755.02492,180.538795 748.121207,175.924437 C768.994548,184.334067 796.746258,166.415909 789.558692,160.30074" id="Fill-580" fill="#E6E7E3" sketch:type="MSShapeGroup"></path>
                <path d="M16.8331444,160.30074 C18.4652997,158.906766 21.8411242,159.837778 26.2560537,161.099477 C30.1336899,160.209165 38.4769437,160.880714 52.2742321,161.659101 L52.2945073,161.659101 L52.4009522,161.623489 C39.9418284,161.638751 16.6709426,145.140005 26.3118106,136.852476 C27.1380259,136.135139 30.027245,137.564725 33.5500648,139.614985 C34.7412341,139.97111 36.2770821,140.703709 38.1170585,141.741558 C41.7919424,143.725681 46.4856563,146.752741 54.3929928,148.864051 L54.6717771,148.935276 C64.0389296,150.090138 73.33005,150.059613 80.3706207,149.71875 C82.4133493,147.739715 90.1230024,146.900278 97.4119447,145.908217 L98.3496737,145.379117 C96.7377935,145.33333 95.2526335,145.160355 93.8992625,144.870368 C77.4560576,144.402318 62.6551457,136.877913 63.5827371,133.443854 C64.7232183,129.165271 82.0889458,132.15163 92.7080932,132.553542 C92.0339421,132.47723 91.3749974,132.385655 90.6704334,132.248293 C85.287362,131.246056 81.4908267,129.139833 78.9868368,127.211672 C63.532049,120.704766 57.6674411,109.42579 60.9064078,105.264219 C63.3039528,102.191372 79.711676,117.209657 89.9303878,119.23448 C88.9369019,118.578193 87.9687601,117.886294 87.0360999,117.174045 C77.055622,112.320575 74.450256,106.536093 74.7847971,104.887744 C67.0041807,94.5499544 64.6167734,84.6344266 69.5537899,85.0973887 C72.1490183,85.3568509 80.0715612,94.9315166 86.4836001,101.921735 C85.2670868,100.476886 84.3901834,99.3067623 83.9796102,98.604688 C81.5567212,94.5092545 83.7920644,92.5963564 90.3764427,96.5646025 C96.1650185,100.054624 104.173731,101.21966 106.008639,101.453685 C103.707401,99.9579616 101.345338,97.9585761 98.5980451,95.2876412 C93.260593,89.7270092 91.3040341,85.8859504 91.2229332,84.2070771 C88.8710075,79.7351689 88.2424756,76.1433975 90.2091721,75.3344858 C91.8463963,74.6680239 103.87974,87.8191985 109.328706,90.5562709 C107.873959,88.83161 106.388799,86.7406496 104.721162,84.0290147 C101.20848,77.8477083 100.853664,73.7166623 101.365613,72.2718138 C99.0086184,63.4043099 98.7602469,54.9794182 102.556782,54.9794182 C105.506827,54.9794182 109.445289,74.7697738 114.726984,78.2089204 C114.493819,77.5271961 114.265723,76.7844218 114.042695,75.9958601 C113.606778,73.9557746 113.490196,72.2921637 113.51554,70.9236276 C112.314233,61.8627989 113.363475,50.5125976 117.646616,50.8381972 C121.417807,53.5091321 118.832716,92.921956 135.686495,104.648632 C135.686495,104.648632 136.107205,104.918269 136.781357,105.381231 C142.696653,92.2961941 149.382407,73.8387622 166.550451,89.6201718 L166.591001,89.5998218 C166.591001,89.5998218 169.135542,88.7909101 170.407812,89.5743843 C173.210861,89.5438593 176.703268,89.5998218 176.966846,90.0729588 C176.490378,91.0344954 169.936413,92.3572441 167.645313,94.7788917 L167.604763,94.7534542 C165.617791,101.077211 156.863964,104.801257 156.833551,107.991116 C156.722037,120.038304 174.655471,125.751561 158.693803,145.465605 C155.115226,149.866288 146.168784,158.347142 124.768288,161.994876 C124.768288,161.994876 111.939141,164.151974 98.2989856,162.264513 C96.1295369,162.69695 94.2996981,163.882337 93.0122215,166.395559 C86.5342882,178.951497 93.4380012,200.649663 83.7464452,207.416031 C78.9361488,210.768691 76.4828469,199.240427 78.8854607,192.657208 C72.4328714,201.504362 51.9092781,213.098763 44.017148,208.031618 C37.0475405,203.55971 64.3430579,195.480768 71.2163581,181.337532 C69.4828266,182.955355 67.6124374,184.649491 65.5240896,186.450464 C56.1620059,194.112232 48.3611143,196.808604 43.6116436,197.241041 C31.8469461,199.515152 24.3248389,195.613043 22.1047021,191.848297 C20.2647257,188.760187 32.5261661,188.200563 37.5442835,186.699752 C45.6391658,184.308629 51.3719847,180.538795 58.2807666,175.924437 C37.4124945,184.334067 9.65064707,166.415909 16.8331444,160.30074" id="Fill-581" fill="#E6E7E3" sketch:type="MSShapeGroup"></path>
                <path d="M418.387803,199 C515.46968,202.096436 541.196035,218.847411 621.339241,249.293128 C710.575561,283.175845 780.489595,217.832059 780.489595,217.832059 L761.197721,280.764372 L799.786537,300.122291 C799.786537,300.122291 710.575561,375.137405 621.339241,341.244513 C536.340442,308.964357 512.517057,292.078961 399.893268,290.552712 C287.26948,292.078961 263.425819,308.964357 178.416883,341.244513 C89.2261824,375.137405 0,300.122291 0,300.122291 L38.5685407,280.764372 L19.2918735,217.832059 C19.2918735,217.832059 89.2261824,283.175845 178.416883,249.293128 C258.570185,218.847411 284.296582,202.096436 381.403493,199 L418.387803,199 Z" id="Fill-582" fill="#73AFAC" sketch:type="MSShapeGroup"></path>
                <path d="M201.307077,31.7953932 L201.332422,31.1492814 C201.332422,27.9746845 198.808156,25.4156745 195.624947,25.4156745 C192.467081,25.4156745 189.907334,27.9746845 189.907334,31.1492814 C189.907334,27.9746845 187.362794,25.4156745 184.19479,25.4156745 C181.016649,25.4156745 178.461971,27.9746845 178.461971,31.1492814 L178.497453,31.7953932 C178.497453,31.7953932 178.08688,36.1452015 189.907334,44.0613437 C201.737926,36.1452015 201.307077,31.7953932 201.307077,31.7953932" id="Fill-583" fill="#BEFCF8" sketch:type="MSShapeGroup"></path>
                <path d="M626.968064,31.7953932 L626.998477,31.1492814 C626.998477,27.9746845 624.453937,25.4156745 621.285933,25.4156745 C618.133136,25.4156745 615.568321,27.9746845 615.568321,31.1492814 C615.568321,27.9746845 613.003505,25.4156745 609.850708,25.4156745 C606.682705,25.4156745 604.117889,27.9746845 604.117889,31.1492814 L604.163509,31.7953932 C604.163509,31.7953932 603.722523,36.1452015 615.568321,44.0613437 C627.398913,36.1452015 626.968064,31.7953932 626.968064,31.7953932" id="Fill-584" fill="#BEFCF8" sketch:type="MSShapeGroup"></path>
                <path d="M290.96991,366.06057 L291.020598,365.012546 C291.020598,359.935226 286.945279,355.819443 281.881542,355.819443 C276.833012,355.819443 272.742486,359.935226 272.742486,365.012546 C272.742486,359.935226 268.631684,355.819443 263.573017,355.819443 C258.524486,355.819443 254.428892,359.935226 254.428892,365.012546 L254.47958,366.06057 C254.47958,366.06057 253.815566,372.994826 272.742486,385.657601 C291.64913,372.994826 290.96991,366.06057 290.96991,366.06057" id="Fill-585" fill="#BEFCF8" sketch:type="MSShapeGroup"></path>
                <path d="M549.041618,366.06057 L549.097375,365.012546 C549.097375,359.935226 544.986574,355.819443 539.95325,355.819443 C534.869238,355.819443 530.78885,359.935226 530.78885,365.012546 C530.78885,359.935226 526.678048,355.819443 521.619381,355.819443 C516.565781,355.819443 512.475255,359.935226 512.475255,365.012546 L512.536081,366.06057 C512.536081,366.06057 511.86193,372.994826 530.78885,385.657601 C549.695494,372.994826 549.041618,366.06057 549.041618,366.06057" id="Fill-586" fill="#BEFCF8" sketch:type="MSShapeGroup"></path>
                <path d="M250.05299,0 L258.218836,0 L258.218836,2.11131043 C257.656199,1.99938554 257.123974,1.99938554 256.622162,2.11131043 L255.40058,2.82864723 C255.035626,3.19494687 254.76698,3.7749213 254.599709,4.56348303 C254.599709,4.61944548 254.457782,5.46396965 254.178998,7.09705555 C253.900214,8.73014145 253.520053,10.8567144 253.043586,13.4767743 C252.562049,16.0968342 252.014618,19.0831938 251.401293,22.4307655 C250.782898,25.7834248 250.164504,29.1818714 249.551179,32.6159306 C248.091363,40.7813601 246.433863,50.020251 244.583749,60.3326034 L240.204302,60.3326034 C239.753178,57.3462438 239.246297,54.1919969 238.688729,50.8647752 C238.237605,47.995428 237.735793,44.7953936 237.173156,41.2799346 C236.610518,37.759388 236.05295,34.1370916 235.490312,30.4181327 C234.816161,34.1370916 234.152148,37.759388 233.513478,41.2799346 C232.864671,44.7953936 232.291896,47.995428 231.785016,50.8647752 C231.166621,54.1919969 230.603984,57.3462438 230.102172,60.3326034 L225.722724,60.3326034 L221.348345,32.6159306 C220.785708,29.1818714 220.248414,25.7834248 219.746603,22.4307655 C219.239722,19.0831938 218.778461,16.0968342 218.35775,13.4767743 C217.937039,10.8567144 217.597429,8.73014145 217.349058,7.09705555 C217.095617,5.46396965 216.968897,4.61944548 216.968897,4.56348303 C216.801627,3.7749213 216.53298,3.19494687 216.168026,2.82864723 L214.946444,2.11131043 C214.439563,1.99938554 213.937752,1.99938554 213.430871,2.11131043 L213.430871,0 L225.889995,0 L225.889995,2.11131043 C225.388183,1.99938554 224.937059,1.99938554 224.546761,2.11131043 L223.700271,2.82864723 C223.477244,3.19494687 223.451899,3.7749213 223.61917,4.56348303 C223.61917,4.61944548 223.715477,5.36221975 223.913161,6.80198084 C224.110844,8.23665443 224.389628,10.1393776 224.754582,12.5050628 C225.119536,14.8707479 225.525041,17.5620328 225.976165,20.5738299 C226.427288,23.5856269 226.903756,26.6737364 227.405568,29.8279833 C227.912448,32.9822302 228.404122,36.1059521 228.88059,39.2042366 C229.357058,42.3076086 229.818319,45.0955558 230.269443,47.5731659 C230.882768,44.3069941 231.572126,40.5880353 232.332447,36.4162893 C233.092767,32.2496309 233.807469,28.1389349 234.476551,24.0791139 C234.030496,21.4336165 233.624992,18.940744 233.260038,16.6004962 C232.890015,14.265336 232.57068,12.209988 232.291896,10.4344523 C232.008043,8.65891652 231.785016,7.2547679 231.617745,6.20674392 C231.445406,5.16889494 231.364305,4.61944548 231.364305,4.56348303 C231.252791,3.7749213 230.999351,3.19494687 230.603984,2.82864723 L229.428021,2.11131043 C228.921141,1.99938554 228.419329,1.99938554 227.912448,2.11131043 L227.912448,0 L240.285402,0 L240.285402,2.11131043 C239.727834,1.99938554 239.27671,1.99938554 238.942169,2.11131043 L238.141298,2.82864723 C237.943614,3.19494687 237.903064,3.7749213 238.014578,4.56348303 C238.014578,4.61944548 238.126091,5.36221975 238.354188,6.80198084 C238.577215,8.23665443 238.871206,10.1393776 239.23616,12.5050628 C239.601114,14.8707479 240.006618,17.5620328 240.457742,20.5738299 C240.903797,23.5856269 241.365058,26.6737364 241.846594,29.8279833 C242.323062,32.9822302 242.79953,36.1059521 243.275998,39.2042366 C243.752465,42.3076086 244.213727,45.0955558 244.66485,47.5731659 C245.171731,45.0955558 245.703955,42.3076086 246.266593,39.2042366 C246.824161,36.1059521 247.386799,32.9822302 247.949436,29.8279833 C248.512074,26.6737364 249.044298,23.5856269 249.551179,20.5738299 C250.05299,17.5620328 250.504114,14.8707479 250.894412,12.5050628 C251.28471,10.1393776 251.609114,8.23665443 251.862554,6.80198084 C252.115994,5.36221975 252.242714,4.61944548 252.242714,4.56348303 C252.354228,3.7749213 252.313678,3.19494687 252.115994,2.82864723 L251.401293,2.11131043 C251.061683,1.99938554 250.615628,1.99938554 250.05299,2.11131043 L250.05299,0" id="Fill-587" fill="#E6E7E3" sketch:type="MSShapeGroup"></path>
                <path d="M287.564329,51.541412 L287.564329,60.4140033 L264.075485,60.4140033 L264.075485,58.2162055 L265.084177,58.2162055 L265.885048,57.5853561 C266.138488,57.2190565 266.265209,56.639082 266.265209,55.8505203 L266.265209,4.56348303 C266.265209,3.71895886 266.138488,3.11354695 265.885048,2.74724731 L265.084177,2.02991051 L264.075485,2.02991051 L264.075485,0 L287.564329,0 L287.564329,8.87259131 L285.374605,8.87259131 C285.318848,7.57528008 285.146509,6.42041871 284.867725,5.4080072 C284.58894,4.56348303 284.12261,3.75965882 283.478872,3.00162206 C282.835134,2.23849781 281.953161,1.85693568 280.827887,1.85693568 L272.07406,1.85693568 L272.07406,29.2327464 L277.964012,29.2327464 C278.69392,29.2327464 279.256557,29.0394216 279.646855,28.642597 C280.042222,28.2508598 280.321006,27.7980728 280.488277,27.2893233 C280.716373,26.6737364 280.827887,25.9716621 280.827887,25.1780128 L282.76417,25.1780128 L282.76417,35.5717652 L280.827887,35.5717652 C280.827887,34.7832034 280.716373,34.1065666 280.488277,33.5418547 C280.321006,32.9822302 280.042222,32.4887432 279.646855,32.0664811 C279.256557,31.644219 278.69392,31.4305442 277.964012,31.4305442 L272.07406,31.4305442 L272.07406,58.3891803 L280.827887,58.3891803 C281.953161,58.3891803 282.835134,58.0483182 283.478872,57.3716813 C284.12261,56.6950445 284.58894,55.9064828 284.867725,55.0059961 C285.146509,53.9935846 285.318848,52.8387233 285.374605,51.541412 L287.564329,51.541412" id="Fill-588" fill="#E6E7E3" sketch:type="MSShapeGroup"></path>
                <path d="M295.99517,6.08464404 C294.814138,5.46396965 294.221088,4.47699562 294.221088,3.12880944 C294.221088,2.22323532 294.545491,1.47537356 295.194299,0.885224133 C295.838037,0.295074711 296.583151,0 297.424573,0 C298.544779,0 299.386201,0.396824611 299.948838,1.18029884 L300.029939,1.18029884 L300.075558,1.30748622 L300.116109,1.4346736 C300.734503,2.28428526 301.074113,3.29669677 301.12987,4.47699562 C301.180558,5.66238196 301.00315,6.89864324 300.57737,8.19595447 C300.156659,9.4932657 299.553471,10.760052 298.767806,11.9963133 C297.982141,13.237662 297.059619,14.336561 295.99517,15.29301 L294.560698,14.8707479 C295.685973,13.5734367 296.537532,12.4338378 297.130582,11.4468638 C297.718564,10.4649773 298.083518,9.63571556 298.225444,8.95907873 C298.362302,8.28244189 298.306545,7.71772994 298.053105,7.26494289 C297.804733,6.81724332 297.39416,6.47638116 296.836591,6.25253138 L296.370261,6.21183142 L295.99517,6.08464404" id="Fill-589" fill="#E6E7E3" sketch:type="MSShapeGroup"></path>
                <path d="M313.07208,2.11639793 L313.07208,31.4356317 L317.618799,31.4356317 C318.125679,31.4356317 318.723798,31.2830069 319.428362,30.9726697 C320.127857,30.6623325 320.802008,30.1790204 321.450815,29.5329086 C322.094554,28.8867967 322.657191,28.0422725 323.133659,26.9993361 C323.610127,25.9563996 323.84836,24.7048758 323.84836,23.2396772 L323.84836,10.3937523 C323.84836,8.9845162 323.610127,7.7635174 323.133659,6.71549342 C322.657191,5.67764444 322.094554,4.81785778 321.450815,4.14122094 C320.802008,3.46458411 320.127857,2.9609221 319.428362,2.62005993 C318.723798,2.28428526 318.125679,2.11639793 317.618799,2.11639793 L313.07208,2.11639793 L313.07208,2.11639793 Z M329.910652,58.8114424 L330.838243,58.6435551 L331.507325,58.3026929 L331.507325,60.1647161 C331.172784,60.4445283 330.752073,60.7141655 330.245193,60.9634528 C329.743381,61.2178276 329.06923,61.3450149 328.227808,61.3450149 C327.4979,61.3450149 326.767992,61.2025651 326.038084,60.9227528 C325.308176,60.6429406 324.634025,60.1952411 324.015631,59.5745667 C323.397237,58.9538923 322.880219,58.1500681 322.459508,57.163094 C322.038797,56.1812075 321.800563,54.9551212 321.744806,53.4899226 L321.744806,39.6315862 C321.744806,38.3902374 321.572467,37.3930884 321.237926,36.6299641 C320.903384,35.8719274 320.467467,35.2919529 319.935243,34.9002158 C319.397949,34.5033912 318.825174,34.2388415 318.20678,34.0963916 C317.588386,33.9539418 317.025748,33.8572793 316.523937,33.8013169 L313.07208,33.8013169 L313.07208,55.9370077 C313.07208,56.7255695 313.183594,57.3055439 313.41169,57.6718435 L314.080772,58.3026929 L315.175634,58.3026929 L315.175634,60.5004908 L305.073505,60.5004908 L305.073505,58.3026929 L306.087266,58.3026929 L306.883069,57.6718435 C307.136509,57.3055439 307.263229,56.7255695 307.263229,55.9370077 L307.263229,4.56348303 C307.263229,3.7749213 307.136509,3.18477188 306.883069,2.78794727 L306.087266,2.02991051 L305.073505,2.02991051 L305.073505,0 L317.116987,0 C319.190128,0 321.030105,0.351037156 322.626778,1.05819896 C324.228521,1.76027328 325.561617,2.67602238 326.626066,3.80544627 C327.690515,4.92978267 328.491386,6.2270939 329.02868,7.69229247 C329.560904,9.15240354 329.824482,10.678652 329.824482,12.250688 L329.824482,21.4641415 C329.824482,23.6568518 329.266913,25.7986872 328.141639,27.8845602 C327.021433,29.9704332 325.277764,31.5170316 322.925838,32.5345306 C326.119185,33.8318419 327.720928,36.3094519 327.720928,39.9673609 L327.720928,53.4899226 C327.720928,54.9551212 327.817235,56.206645 328.014919,57.2495814 C328.212602,58.2925179 328.846203,58.8114424 329.910652,58.8114424 L329.910652,58.8114424 Z" id="Fill-590" fill="#E6E7E3" sketch:type="MSShapeGroup"></path>
                <path d="M363.531249,51.541412 L363.531249,60.4140033 L340.042405,60.4140033 L340.042405,58.2162055 L341.056166,58.2162055 L341.857037,57.5853561 C342.105409,57.2190565 342.232129,56.639082 342.232129,55.8505203 L342.232129,4.56348303 C342.232129,3.71895886 342.105409,3.11354695 341.857037,2.74724731 L341.056166,2.02991051 L340.042405,2.02991051 L340.042405,0 L363.531249,0 L363.531249,8.87259131 L361.341525,8.87259131 C361.285768,7.57528008 361.118498,6.42041871 360.839714,5.4080072 C360.55586,4.56348303 360.094599,3.75965882 359.450861,3.00162206 C358.802054,2.23849781 357.920082,1.85693568 356.794807,1.85693568 L348.04098,1.85693568 L348.04098,29.2327464 L353.936001,29.2327464 C354.66084,29.2327464 355.223477,29.0394216 355.618844,28.642597 C356.009142,28.2508598 356.292995,27.7980728 356.460266,27.2893233 C356.683293,26.6737364 356.794807,25.9716621 356.794807,25.1780128 L358.736159,25.1780128 L358.736159,35.5717652 L356.794807,35.5717652 C356.794807,34.7832034 356.683293,34.1065666 356.460266,33.5418547 C356.292995,32.9822302 356.009142,32.4887432 355.618844,32.0664811 C355.223477,31.644219 354.66084,31.4305442 353.936001,31.4305442 L348.04098,31.4305442 L348.04098,58.3891803 L356.794807,58.3891803 C357.920082,58.3891803 358.802054,58.0483182 359.450861,57.3716813 C360.094599,56.6950445 360.55586,55.9064828 360.839714,55.0059961 C361.118498,53.9935846 361.285768,52.8387233 361.341525,51.541412 L363.531249,51.541412" id="Fill-591" fill="#E6E7E3" sketch:type="MSShapeGroup"></path>
                <path d="M399.083166,30.6725075 L412.13534,30.7589949 L412.13534,32.9517052 L411.207749,32.9517052 L410.619768,33.5876421 C410.447428,33.8979793 410.361259,34.4169038 410.361259,35.1495031 L410.361259,60.8362654 L408.343874,60.8362654 C408.343874,59.3761544 407.193255,59.0658172 404.892017,59.9103413 C402.981078,60.9787153 400.791354,61.4823773 398.322846,61.4264148 C396.528488,61.4264148 394.729063,60.9939778 392.934705,60.1189286 C391.140348,59.248967 389.680532,57.9618307 388.555257,56.2727824 C387.825349,55.2044084 387.277918,53.9681472 386.918033,52.558911 C386.548011,51.1496749 386.284433,49.4453641 386.117162,47.4459785 C385.949891,45.446593 385.863722,43.0809078 385.863722,40.3438355 L385.863722,30.6725075 C385.863722,25.7121998 385.894135,21.5862414 385.949891,18.2895446 C386.005648,14.9979353 386.25402,12.281213 386.705143,10.1393776 C386.928171,8.28244189 387.516152,6.67479346 388.474157,5.32151979 C389.427092,3.97333361 390.552367,2.84390972 391.839843,1.9434231 C393.918054,0.646111867 396.077365,0 398.322846,0 L399.123717,0 L399.924588,0.0813999203 L399.752249,0 L400.091859,0.0406999601 L400.4264,0.0813999203 C401.718945,0.366299641 402.75805,0.717336798 403.543715,1.13959888 C404.32938,1.56186097 405.003531,1.88746065 405.566169,2.11131043 L406.828301,2.11131043 L407.548071,1.4346736 C407.745755,1.15486137 407.842062,0.758036758 407.842062,0.249287256 L409.940548,0.249287256 L409.940548,14.9572354 L408.009333,14.9572354 C408.009333,14.0516612 407.923163,13.1257371 407.755893,12.1642006 C407.644379,11.3807264 407.477108,10.4904147 407.249012,9.50344069 C407.025985,8.51646666 406.686375,7.54984261 406.24032,6.58830605 C406.128806,6.36445627 405.885503,5.97271915 405.525618,5.4080072 C405.155595,4.84329526 404.648715,4.2938458 404.004976,3.75965882 C403.361238,3.22547184 402.560367,2.77268478 401.607432,2.40638514 C400.654496,2.0400855 399.554565,1.9434231 398.322846,2.11131043 C397.425667,2.22323532 396.569039,2.4521726 395.752961,2.78794727 C394.941952,3.12372194 394.242457,3.6731714 393.649407,4.43629566 C393.061426,5.19433241 392.600164,6.16604396 392.260554,7.3514303 C391.926013,8.53172915 391.758743,10.0274527 391.758743,11.8284259 L391.758743,49.5979889 C391.758743,53.2050229 392.387274,55.7691204 393.649407,57.2851939 C394.91154,58.8114424 396.442319,59.5694792 398.241745,59.5694792 C399.133854,59.5694792 399.975276,59.4880792 400.76601,59.3151044 C401.718945,58.9793297 402.46406,58.5418052 402.996284,58.0076182 C403.528509,57.4734312 403.923876,56.7662694 404.177316,55.8963078 C404.425687,55.0212586 404.58282,53.9935846 404.638577,52.8132858 C404.694334,51.6278994 404.724747,50.2186633 404.724747,48.5855774 L404.724747,35.4038778 L404.557476,34.2184915 L403.878256,33.3739673 C403.543715,33.0941551 403.036835,32.9517052 402.367752,32.9517052 L399.083166,32.9517052 L399.083166,30.6725075" id="Fill-592" fill="#E6E7E3" sketch:type="MSShapeGroup"></path>
                <path d="M439.49817,51.541412 L439.49817,60.4140033 L416.009325,60.4140033 L416.009325,58.2162055 L417.018017,58.2162055 L417.823957,57.5853561 C418.072329,57.2190565 418.199049,56.639082 418.199049,55.8505203 L418.199049,4.56348303 C418.199049,3.71895886 418.072329,3.11354695 417.823957,2.74724731 L417.018017,2.02991051 L416.009325,2.02991051 L416.009325,0 L439.49817,0 L439.49817,8.87259131 L437.308446,8.87259131 C437.257757,7.57528008 437.085418,6.42041871 436.806634,5.4080072 C436.522781,4.56348303 436.061519,3.75965882 435.412712,3.00162206 C434.768974,2.23849781 433.881933,1.85693568 432.766796,1.85693568 L424.0079,1.85693568 L424.0079,29.2327464 L429.897852,29.2327464 C430.632829,29.2327464 431.190397,29.0394216 431.585764,28.642597 C431.976062,28.2508598 432.259915,27.7980728 432.427186,27.2893233 C432.650213,26.6737364 432.766796,25.9716621 432.766796,25.1780128 L434.70308,25.1780128 L434.70308,35.5717652 L432.766796,35.5717652 C432.766796,34.7832034 432.650213,34.1065666 432.427186,33.5418547 C432.259915,32.9822302 431.976062,32.4887432 431.585764,32.0664811 C431.190397,31.644219 430.632829,31.4305442 429.897852,31.4305442 L424.0079,31.4305442 L424.0079,58.3891803 L432.766796,58.3891803 C433.881933,58.3891803 434.768974,58.0483182 435.412712,57.3716813 C436.061519,56.6950445 436.522781,55.9064828 436.806634,55.0059961 C437.085418,53.9935846 437.257757,52.8387233 437.308446,51.541412 L439.49817,51.541412" id="Fill-593" fill="#E6E7E3" sketch:type="MSShapeGroup"></path>
                <path d="M472.502579,0 L472.502579,8.95399123 L470.312855,8.95399123 C470.257098,7.60580505 470.089828,6.42041871 469.811043,5.4080072 C469.52719,4.56348303 469.065929,3.75965882 468.422191,3.00162206 C467.773384,2.23849781 466.891411,1.85693568 465.771205,1.85693568 L462.319349,1.85693568 L462.319349,55.8505203 C462.319349,56.639082 462.430863,57.2190565 462.65389,57.5853561 L463.414211,58.2162055 L464.422903,58.2162055 L464.422903,60.4140033 L454.234604,60.4140033 L454.234604,58.2162055 L455.329466,58.2162055 L456.130337,57.5853561 C456.383778,57.2190565 456.510498,56.639082 456.510498,55.8505203 L456.510498,1.85693568 L452.972472,1.85693568 C451.796509,1.85693568 450.894261,2.23849781 450.275867,3.00162206 C449.662542,3.75965882 449.241831,4.56348303 449.013735,5.4080072 C448.679193,6.42041871 448.48151,7.60580505 448.425753,8.95399123 L446.154928,8.95399123 L446.154928,0 L472.502579,0" id="Fill-594" fill="#E6E7E3" sketch:type="MSShapeGroup"></path>
                <path d="M503.854006,0 L503.854006,8.95399123 L501.669351,8.95399123 C501.613594,7.60580505 501.446324,6.42041871 501.162471,5.4080072 C500.878618,4.56348303 500.417356,3.75965882 499.773618,3.00162206 C499.12988,2.23849781 498.247908,1.85693568 497.122633,1.85693568 L493.670776,1.85693568 L493.670776,55.8505203 C493.670776,56.639082 493.78229,57.2190565 494.010386,57.5853561 L494.765638,58.2162055 L495.774331,58.2162055 L495.774331,60.4140033 L485.5911,60.4140033 L485.5911,58.2162055 L486.680894,58.2162055 L487.486834,57.5853561 C487.735205,57.2190565 487.861925,56.639082 487.861925,55.8505203 L487.861925,1.85693568 L484.328968,1.85693568 C483.147936,1.85693568 482.245689,2.23849781 481.627295,3.00162206 C481.013969,3.75965882 480.593258,4.56348303 480.365162,5.4080072 C480.030621,6.42041871 479.832937,7.60580505 479.777181,8.95399123 L477.506356,8.95399123 L477.506356,0 L503.854006,0" id="Fill-595" fill="#E6E7E3" sketch:type="MSShapeGroup"></path>
                <path d="M520.47383,55.8505203 C520.47383,56.639082 520.595482,57.2190565 520.848922,57.5853561 L521.568692,58.2162055 L522.658486,58.2162055 L522.658486,60.4140033 L512.475255,60.4140033 L512.475255,58.2162055 L513.651218,58.2162055 L514.284819,57.5853561 C514.538259,57.2190565 514.659911,56.639082 514.659911,55.8505203 L514.659911,4.56348303 C514.659911,3.71895886 514.538259,3.11354695 514.284819,2.74724731 L513.651218,2.02991051 L512.475255,2.02991051 L512.475255,0 L522.658486,0 L522.658486,2.02991051 L521.568692,2.02991051 L520.848922,2.74724731 C520.595482,3.11354695 520.47383,3.71895886 520.47383,4.56348303 L520.47383,55.8505203" id="Fill-596" fill="#E6E7E3" sketch:type="MSShapeGroup"></path>
                <path d="M549.196649,0 L556.607243,0 L556.607243,2.11639793 C556.105431,1.99938554 555.68472,1.99938554 555.34511,2.11639793 L554.544239,2.83373473 C554.290799,3.20003437 554.169148,3.7800088 554.169148,4.56348303 L554.169148,60.3326034 L547.093095,60.3326034 L533.123467,11.8284259 L533.123467,55.7691204 C533.123467,56.5576821 533.245119,57.1223941 533.498559,57.4581687 L534.29943,58.1348056 C534.633971,58.251818 535.054682,58.251818 535.561563,58.1348056 L535.561563,60.3326034 L528.150969,60.3326034 L528.150969,58.1348056 L529.332001,58.1348056 L530.173423,57.4581687 C530.452207,57.1223941 530.594133,56.5576821 530.594133,55.7691204 L530.594133,4.56348303 C530.594133,3.7800088 530.452207,3.20003437 530.173423,2.83373473 L529.332001,2.11639793 L528.150969,2.11639793 L528.150969,0 L536.737526,0 L551.639814,51.3735247 L551.639814,4.56348303 C551.639814,3.7800088 551.502956,3.20003437 551.219103,2.83373473 L550.377681,2.11639793 L549.196649,2.11639793 L549.196649,0" id="Fill-597" fill="#E6E7E3" sketch:type="MSShapeGroup"></path>
                <path d="M576.334245,30.6725075 L589.386419,30.7589949 L589.386419,32.9517052 L588.463896,32.9517052 L587.870846,33.5876421 C587.698507,33.8979793 587.617406,34.4169038 587.617406,35.1495031 L587.617406,60.8362654 L585.594952,60.8362654 C585.594952,59.3761544 584.449402,59.0658172 582.148165,59.9103413 C580.237225,60.9787153 578.047501,61.4823773 575.578993,61.4264148 C573.779567,61.4264148 571.990279,60.9939778 570.190853,60.1189286 C568.396495,59.248967 566.936679,57.9618307 565.816473,56.2727824 C565.081497,55.2044084 564.534066,53.9681472 564.174181,52.558911 C563.804158,51.1496749 563.54058,49.4453641 563.373309,47.4459785 C563.20097,45.446593 563.119869,43.0809078 563.119869,40.3438355 L563.119869,30.6725075 C563.119869,25.7121998 563.150282,21.5862414 563.20097,18.2895446 C563.256727,14.9979353 563.510167,12.281213 563.961291,10.1393776 C564.189387,8.28244189 564.777368,6.67479346 565.730304,5.32151979 C566.683239,3.97333361 567.808514,2.84390972 569.095991,1.9434231 C571.174201,0.646111867 573.333512,0 575.578993,0 L576.379864,0 L577.180735,0.0813999203 L577.013465,0 L577.348006,0.0406999601 L577.687616,0.0813999203 C578.975092,0.366299641 580.014198,0.717336798 580.799862,1.13959888 C581.585527,1.56186097 582.259678,1.88746065 582.817247,2.11131043 L584.07938,2.11131043 L584.79915,1.4346736 C584.991764,1.15486137 585.093141,0.758036758 585.093141,0.249287256 L587.196695,0.249287256 L587.196695,14.9572354 L585.260411,14.9572354 C585.260411,14.0516612 585.174241,13.1257371 585.006971,12.1642006 C584.895457,11.3807264 584.723118,10.4904147 584.50009,9.50344069 C584.282132,8.51646666 583.942522,7.54984261 583.491398,6.58830605 C583.379884,6.36445627 583.14165,5.97271915 582.781765,5.4080072 C582.411743,4.84329526 581.909931,4.2938458 581.261124,3.75965882 C580.617385,3.22547184 579.816514,2.77268478 578.863579,2.40638514 C577.910643,2.0400855 576.815781,1.9434231 575.578993,2.11131043 C574.681814,2.22323532 573.825186,2.4521726 573.014177,2.78794727 C572.1981,3.12372194 571.498604,3.6731714 570.905554,4.43629566 C570.317573,5.19433241 569.856311,6.16604396 569.516701,7.3514303 C569.18216,8.53172915 569.01489,10.0274527 569.01489,11.8284259 L569.01489,49.5979889 C569.01489,53.2050229 569.643422,55.7691204 570.905554,57.2851939 C572.172756,58.8114424 573.698466,59.5694792 575.492823,59.5694792 C576.39507,59.5694792 577.236492,59.4880792 578.022157,59.3151044 C578.975092,58.9793297 579.715138,58.5418052 580.252431,58.0076182 C580.784656,57.4734312 581.174954,56.7662694 581.428394,55.8963078 C581.681835,55.0212586 581.838967,53.9935846 581.894724,52.8132858 C581.950481,51.6278994 581.975825,50.2186633 581.975825,48.5855774 L581.975825,35.4038778 L581.808555,34.2184915 L581.134404,33.3739673 C580.799862,33.0941551 580.292982,32.9517052 579.6239,32.9517052 L576.334245,32.9517052 L576.334245,30.6725075" id="Fill-598" fill="#E6E7E3" sketch:type="MSShapeGroup"></path>
                <path d="M342.329225,397.242514 C342.339363,402.457197 342.3495,407.671879 342.364707,412.881474 C329.935996,412.896736 317.502216,412.911999 305.073505,412.932349 L305.073505,409.31514 C305.813551,409.584777 306.371119,409.57969 306.736073,409.299877 C307.202403,409.198127 307.658596,408.84709 308.124926,408.236591 C308.586187,407.621004 308.819352,406.659467 308.814283,405.346894 C308.804146,376.948496 308.788939,348.550099 308.773733,320.15679 C308.773733,318.747553 308.540568,317.796192 308.089444,317.287442 C307.628183,316.788868 307.17199,316.488706 306.715798,316.407306 C306.350844,316.305556 305.803413,316.432743 305.073505,316.788868 L305.073505,313.446384 C310.588365,312.118547 316.123501,310.912811 321.678912,309.829175 C321.678912,310.978949 321.678912,312.13381 321.68398,313.288671 C320.943935,313.237796 320.305265,313.359896 319.757834,313.654971 C319.387812,313.919521 319.017789,314.397745 318.657904,315.089645 C318.287881,315.781544 318.105404,316.84483 318.110473,318.274416 C318.151023,348.580624 318.196642,378.886832 318.237193,409.19304 C322.581159,409.15234 326.920057,409.116727 331.264023,409.086203 C333.210444,409.07094 334.685466,408.496053 335.699228,407.356454 C336.712989,406.216855 337.447965,404.853407 337.909227,403.266108 C338.365419,401.582147 338.634066,399.598024 338.725304,397.323914 C339.926611,397.298477 341.127918,397.273039 342.329225,397.242514" id="Fill-599" fill="#E6E7E3" sketch:type="MSShapeGroup"></path>
                <path d="M380.432317,393.859267 C380.427248,389.560333 380.422179,384.386351 380.41711,378.337319 C380.412041,372.293375 380.447523,366.040844 380.538762,359.584813 C380.437385,353.235619 380.381629,347.064488 380.37656,341.071418 C380.371491,335.073262 380.366422,329.924717 380.361353,325.620696 C380.351216,319.169752 379.327317,314.692757 377.27952,312.235497 C375.231722,309.778237 372.722664,308.638638 369.747275,308.847225 C366.776955,309.050725 364.272965,310.531186 362.235305,313.232646 C360.202714,315.944281 359.194022,320.482326 359.204159,326.846782 C359.229503,338.013834 359.249779,349.180885 359.270054,360.347937 C359.295398,371.616738 359.320742,382.880452 359.341017,394.149254 C359.351155,400.518798 360.26354,405.031406 362.073103,407.702341 C363.877598,410.373276 366.538721,411.716374 370.051403,411.711287 C373.564085,411.701112 376.17452,410.342751 377.882708,407.626028 C379.585826,404.914393 380.437385,400.320385 380.432317,393.859267 L380.432317,393.859267 Z M389.992084,359.437275 C389.997153,366.117156 390.002221,371.916901 390.002221,376.846683 C390.00729,381.781554 389.885639,386.075399 389.662611,389.723133 C389.429446,393.370867 389.013804,396.453889 388.415685,398.972199 C387.812497,401.490509 386.915319,403.729007 385.714012,405.677518 C383.868967,408.765627 381.511972,411.100787 378.653166,412.693173 C375.784222,414.280472 372.874728,415.074121 369.919614,415.074121 C367.05067,415.074121 364.16652,414.280472 361.246888,412.718611 C358.337394,411.15675 355.949986,408.872465 354.094804,405.870842 C352.888428,403.973207 351.981112,401.805934 351.377924,399.358849 C350.769667,396.911764 350.348956,393.915229 350.110722,390.369245 C349.86742,386.823261 349.7407,382.651515 349.730562,377.843832 C349.720424,373.041237 349.710287,367.394118 349.69508,360.882124 C349.674805,352.17742 349.705218,344.943002 349.786319,339.17887 C349.862351,333.414738 350.267855,328.601968 351.002832,324.715122 C351.362717,321.474388 352.28524,318.54399 353.760262,315.923931 C355.235285,313.314046 357.03978,311.13151 359.168678,309.411937 C362.59519,306.761352 366.11801,305.285978 369.742206,305.026516 C371.50615,304.899329 373.320783,305.087566 375.175965,305.596316 C377.041286,306.099978 378.76468,306.888539 380.346147,307.946738 C382.480114,309.391587 384.32009,311.360447 385.855939,313.827883 C387.391787,316.305493 388.304172,319.190102 388.582956,322.466449 C389.231763,326.36347 389.632199,331.257641 389.774125,337.16931 C389.916052,343.075891 389.992084,350.493459 389.992084,359.437275 L389.992084,359.437275 Z" id="Fill-600" fill="#E6E7E3" sketch:type="MSShapeGroup"></path>
                <path d="M432.203397,306.430505 C436.704497,306.822242 441.200527,307.285204 445.68642,307.829566 C445.681351,309.08109 445.681351,310.337701 445.676282,311.589225 C444.844998,311.289062 444.013714,311.197488 443.177361,311.299237 C442.437316,311.421337 441.737821,311.772374 441.094082,312.357436 C440.435138,312.947586 440.019495,313.939647 439.837018,315.328533 C439.837018,315.435371 439.573441,316.915832 439.061491,319.795354 C438.539404,322.674876 437.905804,326.429448 437.165758,331.074331 C436.405437,335.714126 435.513327,341.015296 434.489429,346.97784 C433.455392,352.945472 432.421356,359.009766 431.402526,365.160547 C428.959362,379.787095 426.156313,396.428292 422.98324,415.109573 L415.912257,415.109573 C413.529918,398.305577 411.137442,381.450706 408.739897,364.580573 C407.817374,358.307691 406.910058,352.106035 406.033155,345.980691 C405.156252,339.860434 404.365518,334.401552 403.671092,329.614219 C402.976665,324.826887 402.419097,320.945128 402.003455,317.958768 C401.587813,314.972409 401.374923,313.430898 401.374923,313.32406 C401.096138,311.884299 400.650084,310.831188 400.051965,310.154551 C399.443708,309.488089 398.769557,309.050565 398.024442,308.847065 C397.188089,308.638478 396.351737,308.643565 395.510315,308.85724 L395.510315,305.000919 C402.398821,304.944956 409.292397,305.072144 416.170766,305.382481 C416.165697,306.664529 416.165697,307.941491 416.165697,309.223539 C415.329344,308.984427 414.58423,308.953902 413.935423,309.131965 C413.372785,309.320202 412.901386,309.737376 412.536432,310.388576 C412.16641,311.044863 412.12079,312.097974 412.394506,313.537735 C412.394506,313.644573 412.556708,315.008021 412.881111,317.638256 C413.205515,320.263404 413.661707,323.712725 414.264895,327.986221 C414.868083,332.259717 415.527028,337.1488 416.272142,342.653469 C417.007119,348.158139 417.782646,353.784908 418.61393,359.538865 C419.445214,365.292822 420.251154,370.985729 421.026681,376.622673 C421.807278,382.264705 422.567598,387.33185 423.292437,391.834284 C424.133859,387.357288 425.0209,382.320668 425.95356,376.734598 C426.896358,371.158704 427.829018,365.537022 428.75661,359.87464 C429.704476,354.212258 430.596586,348.692326 431.443077,343.309756 C432.284498,337.922099 433.029613,333.150029 433.688557,328.988458 C434.342433,324.831974 434.859452,321.479315 435.239612,318.93048 C435.614704,316.381645 435.802249,315.058896 435.802249,314.957146 C436.086102,313.563173 436.040483,312.520236 435.675529,311.828337 C435.295369,311.141525 434.879727,310.673476 434.423534,310.429276 C433.769658,310.169814 433.029613,310.108764 432.19326,310.235951 C432.198329,308.969165 432.198329,307.697291 432.203397,306.430505" id="Fill-601" fill="#E6E7E3" sketch:type="MSShapeGroup"></path>
                <path d="M490.864103,397.107366 L490.864103,411.718652 C477.974131,411.698302 465.07909,411.683039 452.184049,411.667777 C452.189118,410.375553 452.194187,409.083329 452.194187,407.786018 C452.934232,408.091268 453.486732,408.096355 453.856755,407.796193 C454.318016,407.704618 454.759002,407.333231 455.179713,406.692207 C455.595355,406.051182 455.803176,405.043858 455.808245,403.649885 C455.879208,373.608227 455.945103,343.561481 456.016066,313.514736 C456.016066,312.029187 455.813314,310.940463 455.397672,310.238389 C454.987098,309.536314 454.546112,309.053002 454.084851,308.79354 C453.714828,308.544253 453.162328,308.473028 452.422283,308.56969 C452.427352,307.374129 452.427352,306.183655 452.43242,304.988094 C465.322393,306.758542 478.151539,309.170015 490.864103,312.232687 L490.864103,326.843972 C489.678003,326.599773 488.486834,326.36066 487.300733,326.126636 C487.209495,323.954275 486.935779,321.985415 486.484655,320.204791 C486.023394,318.698893 485.273211,317.203169 484.218899,315.707446 C483.169657,314.21681 481.730116,313.270536 479.895208,312.894061 C475.1356,311.92235 470.355716,311.037125 465.570764,310.238389 C465.540351,326.050323 465.50487,341.85717 465.469388,357.669105 C468.698217,357.954005 471.927046,358.264342 475.145738,358.595029 C476.347045,358.717129 477.25943,358.478016 477.908237,357.877692 C478.551975,357.282455 479.013236,356.575293 479.292021,355.746032 C479.662043,354.743795 479.84452,353.578759 479.84452,352.245835 C480.903901,352.373022 481.958212,352.510385 483.012524,352.64266 C483.007455,358.452579 483.002386,364.257411 482.997317,370.06733 C481.937937,369.970668 480.883625,369.874005 479.824245,369.78243 C479.824245,368.454594 479.646837,367.299733 479.276814,366.307671 C478.99803,365.33596 478.541837,364.455823 477.898099,363.677436 C477.254361,362.89905 476.336907,362.446263 475.140669,362.334338 C471.916909,362.029088 468.693148,361.739101 465.464319,361.469464 C465.428838,377.037198 465.398425,392.604933 465.368012,408.16758 C470.168171,408.203193 474.973398,408.238805 479.778626,408.279505 C481.62874,408.294768 483.083487,407.740231 484.142867,406.620982 C485.207316,405.501733 485.967637,404.204422 486.433967,402.713786 C486.895229,401.04 487.174013,399.127102 487.265251,396.980179 C488.466558,397.020879 489.667865,397.061579 490.864103,397.107366" id="Fill-602" fill="#E6E7E3" sketch:type="MSShapeGroup"></path>
                <path d="M264.333917,89.5209567 C263.416463,89.3276318 262.615592,89.3327193 261.926234,89.5362191 C261.464973,89.7397189 261.003712,90.172156 260.537382,90.8284429 C260.07612,91.4898172 259.837887,92.5734537 259.827749,94.0793522 C259.594584,124.60941 259.366488,155.13438 259.138391,185.664438 C259.128254,187.078761 259.346212,188.060648 259.797336,188.620272 C260.24846,189.190072 260.709721,189.474971 261.160845,189.480059 C261.845134,189.647946 262.640936,189.490234 263.563459,189.017097 C263.553321,190.30932 263.543183,191.606632 263.533046,192.903943 C256.614126,194.292829 249.720551,195.783465 242.837113,197.380939 C242.847251,196.032752 242.857388,194.679479 242.862457,193.331293 C243.769773,193.43813 244.448993,193.285505 244.910255,192.873418 C245.48303,192.649568 246.050736,192.135731 246.62858,191.336994 C247.196286,190.548433 247.490276,189.434271 247.500414,187.989423 C247.68796,159.738563 247.880575,131.482616 248.06812,103.226668 C245.011631,114.037595 242.269407,123.953123 239.816105,132.876589 C238.766862,136.641336 237.773376,140.375557 236.840716,144.069078 C235.902987,147.7626 235.031153,151.099996 234.220144,154.076181 C233.409135,157.052366 232.765397,159.494363 232.304135,161.371649 C231.837805,163.259109 231.609709,164.256258 231.609709,164.358008 C229.217233,164.770095 226.829825,165.18727 224.442418,165.61462 C223.773336,163.248934 222.987671,160.542387 222.090492,157.479715 C221.193314,154.417043 220.291066,151.232271 219.398957,147.910137 C218.496709,144.59309 217.599531,141.281131 216.697283,137.974259 C215.800105,134.672475 214.953614,131.396128 214.162881,128.150306 C212.135358,120.600464 210.09263,112.826771 208.049901,104.829229 C207.994144,135.618749 207.943456,166.408269 207.8877,197.202876 C207.882631,198.774912 208.075245,199.873811 208.470612,200.494485 C208.86091,201.120247 209.342447,201.405147 209.905084,201.35936 C210.579235,201.511984 211.309143,201.313572 212.104946,200.764123 C212.099877,202.264934 212.099877,203.770832 212.094808,205.266556 C207.304787,206.619829 202.524903,208.018891 197.755157,209.468827 L197.755157,204.803594 C198.652336,204.884994 199.326487,204.691669 199.777611,204.213444 C200.340248,203.93872 200.872473,203.353658 201.379353,202.468434 C201.886234,201.583209 202.139674,200.346948 202.139674,198.749475 C202.170087,164.225734 202.195431,129.701992 202.220775,95.1782511 C202.220775,93.4739403 201.967335,92.2529415 201.455385,91.5152547 C200.938367,90.7826554 200.390936,90.3044309 199.818161,90.0754936 C199.361969,89.8567313 198.672611,89.8618188 197.755157,90.1009311 L197.755157,85.9546227 C203.376463,85.9495352 208.997768,85.9495352 214.624142,85.9444477 C220.301204,106.92019 225.927578,127.061582 231.528608,146.495813 C237.043468,125.596384 242.603948,105.439729 248.184703,85.9342727 C253.577912,85.9342727 258.971121,85.9291852 264.36433,85.9291852 C264.354192,87.129834 264.344055,88.3253953 264.333917,89.5209567" id="Fill-603" fill="#E6E7E3" sketch:type="MSShapeGroup"></path>
                <path d="M290.47448,159.000876 C297.418743,158.181789 304.378213,157.439015 311.342752,156.772553 C310.683807,153.038332 309.938693,149.019211 309.112477,144.71519 C308.286262,140.411169 307.460047,136.066449 306.633831,131.686115 C305.807616,127.305782 304.981401,123.022111 304.160254,118.845278 C303.334039,114.663357 302.588925,110.801948 301.92998,107.240702 C300.977045,110.847736 300.029178,114.795632 299.076243,119.094565 C298.118238,123.393498 297.13489,127.829794 296.121129,132.403452 C295.107368,136.987285 294.118951,141.555856 293.166015,146.124426 C292.208011,150.687909 291.310833,154.981755 290.47448,159.000876 L290.47448,159.000876 Z M328.647654,175.703122 C328.870681,176.954646 329.347149,177.81952 330.097332,178.282482 C330.842446,178.750532 331.678799,179.030344 332.601322,179.121919 C333.528913,179.208406 334.568018,179.111744 335.723706,178.821757 C335.713568,179.946093 335.708499,181.075517 335.698362,182.199853 C327.203044,183.024028 318.717864,184.005914 310.24789,185.145513 C310.258027,183.985564 310.268165,182.825615 310.278303,181.665666 C311.312339,181.716541 312.234861,181.599529 313.04587,181.309542 C313.618645,181.055167 314.140732,180.617642 314.607062,180.007143 C315.068324,179.396644 315.195044,178.460545 314.977085,177.193758 C314.977085,177.010608 314.667888,175.413135 314.0647,172.386076 C313.456444,169.359016 312.711329,165.35007 311.829357,160.338887 C304.464383,161.076574 297.099408,161.905836 289.754709,162.816497 C288.558471,168.229592 287.635949,172.609925 286.977004,175.926972 C286.323128,179.244019 285.993656,181.004292 285.988587,181.197617 C285.63377,182.601766 285.654046,183.563302 286.049412,184.077139 C286.444779,184.585889 286.931385,184.896226 287.50416,184.992888 C288.193517,185.074288 289.110971,184.926751 290.256521,184.550276 C290.246383,185.745837 290.236246,186.941399 290.231177,188.13696 C284.716317,189.042534 279.211594,190.014246 273.722078,191.057182 C273.732215,189.826008 273.742353,188.594835 273.75249,187.363661 C274.776389,187.373836 275.805357,187.190686 276.839393,186.809124 C277.756847,186.447912 278.5932,185.913725 279.343383,185.201475 C280.093566,184.489226 280.640997,183.42594 281.000882,182.006529 C281.000882,181.909866 281.294873,180.424318 281.892992,177.570233 C282.491111,174.716148 283.291982,170.961577 284.310812,166.337044 C285.319505,161.712511 286.480261,156.487654 287.793082,150.677734 C289.100833,144.872902 290.413654,138.966321 291.726475,132.942727 C295.305051,117.018867 298.878559,101.359558 302.452067,85.9342727 C305.376768,85.9291852 308.301468,85.9291852 311.231238,85.9291852 C314.419517,102.921419 317.283392,117.878654 319.827932,130.953516 C320.932932,136.585373 321.987243,142.05443 322.980729,147.37595 C323.974215,152.692382 324.891669,157.42884 325.722953,161.590411 C326.559306,165.751982 327.248663,169.119904 327.811301,171.699264 C328.3638,174.283711 328.647654,175.616635 328.647654,175.703122 L328.647654,175.703122 Z" id="Fill-604" fill="#E6E7E3" sketch:type="MSShapeGroup"></path>
                <path d="M356.99249,89.2462319 C356.916458,104.600292 356.840426,119.954352 356.764394,135.308412 C359.876641,135.201574 362.993956,135.11 366.106202,135.023512 C367.145308,134.998075 368.382096,134.72335 369.826706,134.204425 C371.271315,133.690588 372.660168,132.912202 373.988195,131.87944 C375.316222,130.846679 376.47191,129.513755 377.460327,127.875582 C378.443675,126.242496 378.940418,124.288898 378.945487,122.014787 C378.965762,115.365431 378.980968,108.716075 379.001244,102.071807 C379.001244,99.884184 378.519707,97.9814609 377.546496,96.3636375 C376.578355,94.755989 375.432804,93.4179778 374.114915,92.3699539 C372.797026,91.3270174 371.423379,90.5333682 369.988907,90.0093562 C368.554435,89.4904317 367.327785,89.2258819 366.293748,89.2309694 C363.191639,89.2360569 360.094599,89.2411444 356.99249,89.2462319 L356.99249,89.2462319 Z M391.32351,176.969909 C392.134518,176.954646 392.773188,176.863071 393.239518,176.679921 C393.700779,176.501859 394.167109,176.323797 394.628371,176.145734 L394.628371,179.020169 C393.928876,179.462781 393.06211,179.885043 392.012867,180.292043 C390.968693,180.699042 389.57984,180.917805 387.836171,180.953417 C386.325667,180.983942 384.815163,180.800792 383.314797,180.403968 C381.804293,180.007143 380.41544,179.350856 379.14317,178.43002 C377.8709,177.504096 376.801382,176.298359 375.939685,174.792461 C375.072919,173.296737 374.586314,171.404189 374.479869,169.130079 C374.500144,161.946536 374.525488,154.757905 374.545764,147.574362 C374.550832,145.646202 374.211222,144.099603 373.521865,142.934567 C372.832507,141.76953 371.940398,140.889394 370.845536,140.304332 C369.745605,139.71927 368.569642,139.33262 367.302441,139.149471 C366.03017,138.966321 364.879552,138.844221 363.840446,138.788258 C361.473314,138.859483 359.111251,138.940883 356.744119,139.027371 C356.688362,150.616684 356.627536,162.211085 356.571779,173.805487 C356.566711,175.046835 356.794807,175.937147 357.250999,176.481509 C357.712261,177.030958 358.178591,177.336208 358.639852,177.397258 C359.334278,177.621108 360.084462,177.570233 360.900539,177.264983 C360.89547,178.40967 360.890402,179.554356 360.880264,180.70413 C353.930932,181.111129 346.981599,181.624966 340.042405,182.245641 C340.047474,181.080605 340.057611,179.910481 340.06268,178.745444 C340.873689,178.943857 341.563046,178.887894 342.145959,178.572469 C342.723803,178.435107 343.276303,178.053545 343.803458,177.427783 C344.325545,176.807109 344.589123,175.876097 344.599261,174.624573 C344.761463,147.467525 344.928733,120.315564 345.090935,93.1636031 C345.101073,91.9120793 344.847632,90.9759802 344.335683,90.3502183 C343.823734,89.729544 343.276303,89.3327193 342.703528,89.1495695 C342.130753,89.0630821 341.441395,89.0681696 340.640524,89.154657 C340.645593,88.0811956 340.65573,87.0077341 340.660799,85.9291852 L365.274918,85.9291852 C369.517509,85.9291852 373.273493,86.4786346 376.542873,87.5724461 C379.807184,88.6662575 382.529132,90.0856686 384.708718,91.8255919 C386.883236,93.5706027 388.52046,95.5699882 389.610253,97.8339235 C390.694978,100.102946 391.242409,102.453369 391.242409,104.895367 C391.232271,109.647087 391.227202,114.403895 391.222133,119.155615 C391.217065,122.554062 390.061377,125.876196 387.750002,129.122018 C385.438626,132.372927 381.854981,134.814925 377.004134,136.483623 C383.573306,138.376171 386.862961,142.186705 386.847754,147.854175 C386.837617,154.834218 386.827479,161.819348 386.817342,168.799392 C386.812273,171.068414 387.009956,173.00675 387.410392,174.614398 C387.815896,176.222047 389.118579,177.000433 391.32351,176.969909 L391.32351,176.969909 Z" id="Fill-605" fill="#E6E7E3" sketch:type="MSShapeGroup"></path>
                <path d="M417.891402,89.205532 C417.931952,104.356092 417.962365,119.506652 417.992778,134.6623 C421.110093,134.703 424.217271,134.753875 427.339655,134.820012 C428.37876,134.835275 429.615549,134.6216 431.060158,134.1739 C432.49463,133.726201 433.883483,133.008864 435.196304,132.032065 C436.514193,131.055266 437.664812,129.763042 438.643091,128.155394 C439.611233,126.552833 440.097839,124.599235 440.087701,122.304775 C440.057288,115.604544 440.026875,108.904313 440.001531,102.198994 C439.991394,99.9961089 439.484513,98.0730358 438.506234,96.4348624 C437.512748,94.8017765 436.367198,93.4535903 435.039171,92.3953913 C433.721281,91.3321049 432.337497,90.5384557 430.903025,90.0093562 C429.463485,89.4802567 428.226696,89.215707 427.197729,89.215707 C424.100689,89.2106195 421.003648,89.205532 417.891402,89.205532 L417.891402,89.205532 Z M452.840815,178.806494 C453.641687,178.862457 454.285425,178.826844 454.751755,178.679307 C455.207948,178.536857 455.669209,178.394407 456.135539,178.251957 C456.145677,179.233844 456.145677,180.21573 456.155814,181.197617 C455.45125,181.584267 454.589553,181.940391 453.550448,182.260903 C452.511343,182.581416 451.117422,182.67299 449.394028,182.550891 C447.878455,182.444053 446.37302,182.118453 444.872653,181.579179 C443.35708,181.039905 441.968228,180.251343 440.680751,179.208406 C439.403412,178.16547 438.333894,176.857984 437.456991,175.270685 C436.585156,173.688474 436.078276,171.750139 435.961693,169.455678 C435.93128,162.24161 435.900868,155.027543 435.870455,147.818562 C435.860317,145.880226 435.505501,144.308191 434.811074,143.097367 C434.10651,141.89163 433.209332,140.965706 432.119539,140.324682 C431.019608,139.683658 429.833508,139.235958 428.566306,138.986671 C427.288967,138.742471 426.128211,138.559321 425.099243,138.447396 C422.732111,138.401609 420.370048,138.360909 418.002916,138.330384 C418.023191,149.767073 418.043466,161.213936 418.06881,172.655713 C418.06881,173.876712 418.296906,174.777198 418.773374,175.352085 C419.229566,175.937147 419.695897,176.272922 420.167296,176.374672 C420.851584,176.654484 421.616974,176.674834 422.427983,176.440809 C422.427983,177.57532 422.43812,178.709832 422.43812,179.849431 C415.47865,179.630668 408.519181,179.518744 401.549573,179.508569 L401.549573,176.110122 C402.360582,176.369584 403.060077,176.369584 403.637921,176.115209 C404.220834,176.033809 404.768265,175.70821 405.290352,175.143498 C405.812438,174.578786 406.070948,173.693562 406.070948,172.467475 C406.06081,145.976889 406.040535,119.481215 406.020259,92.9906283 C406.020259,91.7696295 405.766819,90.8538804 405.244732,90.243381 C404.727714,89.6328816 404.180283,89.2411444 403.602439,89.0630821 C403.029664,88.9816822 402.340307,88.9816822 401.539435,89.0630821 L401.539435,85.9291852 L426.158624,85.9291852 C430.396145,85.9291852 434.157199,86.4786346 437.426578,87.5775336 C440.711164,88.6866075 443.44325,90.1263686 445.632974,91.9019043 C447.822698,93.6876151 449.464991,95.7378756 450.575059,98.0526858 C451.680059,100.377671 452.237628,102.784056 452.257903,105.276929 C452.283247,110.125311 452.303522,114.973694 452.333935,119.816989 C452.35421,123.286661 451.213729,126.63932 448.927698,129.844442 C446.641666,133.049564 443.088434,135.359287 438.247725,136.799048 C444.832103,139.022283 448.136964,143.066842 448.167377,148.830974 C448.207927,155.922942 448.23834,163.01491 448.273822,170.111965 C448.283959,172.4166 448.501918,174.400724 448.91756,176.069422 C449.333202,177.73812 450.640954,178.643694 452.840815,178.806494 L452.840815,178.806494 Z" id="Fill-606" fill="#E6E7E3" sketch:type="MSShapeGroup"></path>
                <path d="M483.690194,176.527296 C483.700331,177.809345 483.968978,178.770882 484.480927,179.422081 C485.018221,180.07328 485.499757,180.470105 485.966087,180.617642 C486.543931,180.958505 487.294114,181.044992 488.216637,180.882192 C488.226775,182.072666 488.236912,183.268227 488.24705,184.463789 C481.267305,183.614177 474.277422,182.871403 467.277402,182.230378 C467.277402,181.065342 467.267264,179.895218 467.257126,178.730182 C468.179649,179.081219 468.990658,179.152444 469.680015,178.948944 C470.029763,178.887894 470.46568,178.592819 470.97763,178.053545 C471.494648,177.51427 471.753157,176.618871 471.743019,175.352085 C471.555473,147.976274 471.362859,120.605551 471.175313,93.2297405 C471.165175,91.8815543 470.901597,90.9098428 470.374442,90.3196934 C469.862492,89.7346315 469.426575,89.3479818 469.076828,89.164832 C468.38747,88.9867697 467.58153,88.9867697 466.674214,89.1597445 C466.664076,88.0811956 466.664076,87.0026466 466.653939,85.9291852 L487.471523,85.9291852 C487.48166,87.0331716 487.491798,88.1320705 487.501935,89.2360569 C486.579413,89.0529071 485.82923,89.0478196 485.266592,89.2258819 C484.8104,89.4090318 484.323794,89.7956814 483.811845,90.3858308 C483.294827,90.9810677 483.046455,91.9578668 483.056593,93.3314904 C483.264414,121.063426 483.482373,148.795361 483.690194,176.527296" id="Fill-607" fill="#E6E7E3" sketch:type="MSShapeGroup"></path>
                <path d="M540.692534,177.79917 C540.733085,183.069815 540.773635,188.34046 540.809117,193.611105 C524.88293,190.334758 508.865505,187.623123 492.787254,185.4762 C492.777117,184.270464 492.766979,183.064728 492.756841,181.858991 C493.679364,182.255816 494.368721,182.347391 494.824914,182.128628 C495.407827,182.113366 495.94512,181.833554 496.457069,181.294279 C496.974087,180.760092 497.232597,179.834168 497.222459,178.526682 C496.984225,150.184247 496.745991,121.841813 496.517895,93.4942903 C496.507757,92.0952291 496.239111,91.0929926 495.717024,90.4824932 C495.189868,89.8719938 494.647506,89.4700817 494.074731,89.2818444 C493.608401,89.0986946 492.913974,89.0936071 492.006658,89.2716694 C491.99652,88.157508 491.986383,87.0433466 491.976245,85.9291852 C507.983533,85.9342727 523.99082,85.9342727 539.998108,85.9393602 C540.038659,91.2150925 540.079209,96.4857373 540.119759,101.756382 C538.624462,101.710595 537.139302,101.664807 535.644004,101.61902 C535.517284,99.3296471 535.147261,97.2793866 534.564349,95.4784133 C533.981436,93.9776023 533.018363,92.5480162 531.695405,91.2049175 C530.35724,89.8516438 528.547677,89.1800945 526.256577,89.1699195 C520.290593,89.134307 514.31954,89.1037821 508.358624,89.0732571 C508.485345,104.468017 508.617134,119.862777 508.743854,135.262624 C512.763416,135.567874 516.782979,135.893474 520.792404,136.234336 C522.287702,136.361523 523.428183,136.127499 524.229054,135.511912 C525.019788,134.896325 525.587494,134.163725 525.932173,133.309026 C526.378228,132.276265 526.596186,131.070528 526.586049,129.701992 C527.903938,129.798655 529.226897,129.905492 530.544786,130.007242 C530.595474,136.071536 530.646162,142.13583 530.691781,148.195037 C529.368823,148.047499 528.050934,147.905049 526.733044,147.757512 C526.722907,146.394063 526.474535,145.188327 526.018343,144.165741 C525.663526,143.153329 525.080614,142.23758 524.279742,141.433756 C523.468734,140.624844 522.318115,140.151707 520.822817,140.014345 C516.813392,139.648045 512.793829,139.297008 508.774267,138.966321 C508.906055,154.127056 509.032776,169.287791 509.159496,184.443439 C515.130549,185.3541 521.101601,186.346162 527.062517,187.409448 C529.348548,187.816448 531.147974,187.562073 532.455726,186.620887 C533.75334,185.669525 534.691069,184.458701 535.248637,182.968065 C535.811275,181.284104 536.140747,179.305069 536.237054,177.030958 C537.722214,177.280246 539.207374,177.539708 540.692534,177.79917" id="Fill-608" fill="#E6E7E3" sketch:type="MSShapeGroup"></path>
                <path d="M569.83538,90.0805811 C570.022926,125.077459 570.210472,160.06925 570.392949,195.066128 C573.799186,195.87504 577.200354,196.709389 580.586316,197.569176 C582.517531,197.838813 584.489296,197.833726 586.526956,197.533563 C588.559547,197.233401 590.298148,196.34309 591.763032,194.821929 C593.567527,192.730968 594.515394,189.439359 594.61677,184.977626 C594.566082,158.868601 594.515394,132.759577 594.469774,106.650552 C594.469774,104.630817 594.170715,102.656869 593.59794,100.738883 C592.797069,98.3579355 591.666725,96.4602999 590.232253,95.0408888 C588.792712,93.6265651 587.221383,92.5531037 585.497989,91.8103294 C583.774595,91.0726426 582.025857,90.6147681 580.251775,90.4316183 C578.467556,90.2484684 576.896226,90.1568935 575.507373,90.1416311 C573.616709,90.1212811 571.726044,90.1009311 569.83538,90.0805811 L569.83538,90.0805811 Z M605.960756,111.035973 L605.960756,184.107664 C605.960756,187.216123 605.418394,190.136346 604.348876,192.842893 C603.289496,195.544353 601.682685,197.767588 599.548717,199.502424 C597.409682,201.242347 594.733352,202.346334 591.529867,202.849996 C588.321313,203.353658 584.570397,203.002621 580.27205,201.873197 C580.150399,201.842672 579.679,201.715484 578.827441,201.496722 C577.986019,201.272872 576.936776,201.028672 575.68985,200.764123 C574.437855,200.499573 573.054071,200.179061 571.518223,199.792411 C569.997582,199.410849 568.431321,199.029287 566.844785,198.642637 C562.637676,197.630226 558.430568,196.653427 554.223459,195.71224 C554.213322,194.379316 554.203184,193.05148 554.193046,191.713469 C554.988849,192.095031 555.728894,192.252744 556.413183,192.196781 C556.97582,192.115381 557.492839,191.810131 557.949031,191.291207 C558.390017,190.772283 558.618113,189.785308 558.607976,188.335372 C558.400155,156.996403 558.202471,125.657434 557.99465,94.313377 C557.984513,92.8685284 557.746279,91.8052419 557.285018,91.1235176 C556.828825,90.4519682 556.301669,90.0093562 555.728894,89.7956814 C555.044606,89.5820066 554.294422,89.5769191 553.493551,89.7753314 C553.483414,88.4932827 553.473276,87.2112339 553.473276,85.9291852 C562.242309,85.9393602 571.026549,85.9495352 579.795583,85.9597101 C584.149687,85.9597101 587.971566,86.646522 591.251083,88.0557581 C594.515394,89.4700817 597.24748,91.3524549 599.427066,93.71814 C601.606652,96.0889127 603.238808,98.7954601 604.328601,101.817432 C605.408257,104.844492 605.960756,107.927514 605.960756,111.035973 L605.960756,111.035973 Z" id="Fill-609" fill="#E6E7E3" sketch:type="MSShapeGroup"></path>
                <text id="P" fill="#D8D8D8" sketch:type="MSTextLayer" font-family="Times" font-size="90" font-weight="normal">
                    <tspan x="364.778607" y="274.463789" fill="#000000">P</tspan>
                </text>
                <text id="O" fill="#D8D8D8" sketch:type="MSTextLayer" transform="translate(448.343434, 244.096179) rotate(5.000000) translate(-448.343434, -244.096179) " font-family="Times" font-size="90" font-weight="normal">
                    <tspan x="415.843434" y="275.596179" fill="#000000">O</tspan>
                </text>
                <text id="R" fill="#D8D8D8" sketch:type="MSTextLayer" transform="translate(519.898706, 254.988611) rotate(14.000000) translate(-519.898706, -254.988611) " font-family="Times" font-size="90" font-weight="normal">
                    <tspan x="489.398706" y="286.488611" fill="#000000">R</tspan>
                </text>
                <text id="T" fill="#D8D8D8" sketch:type="MSTextLayer" transform="translate(582.154290, 275.265550) rotate(23.000000) translate(-582.154290, -275.265550) " font-family="Times" font-size="90" font-weight="normal">
                    <tspan x="554.65429" y="306.76555" fill="#000000">T</tspan>
                </text>
                <text id="I" fill="#D8D8D8" sketch:type="MSTextLayer" transform="translate(638.245185, 296.137798) rotate(12.000000) translate(-638.245185, -296.137798) " font-family="Times" font-size="90" font-weight="normal">
                    <tspan x="623.245185" y="327.637798" fill="#000000">I</tspan>
                </text>
                <text id="A" fill="#D8D8D8" sketch:type="MSTextLayer" transform="translate(703.675474, 297.348069) rotate(-11.000000) translate(-703.675474, -297.348069) " font-family="Times" font-size="90" font-weight="normal">
                    <tspan x="671.175474" y="328.848069" fill="#000000">A</tspan>
                </text>
                <text id="&amp;" fill="#D8D8D8" sketch:type="MSTextLayer" transform="translate(313.879484, 244.096179) rotate(-12.000000) translate(-313.879484, -244.096179) " font-family="Times" font-size="90" font-weight="normal">
                    <tspan x="278.379484" y="275.596179" fill="#000000">&amp;</tspan>
                </text>
                <text id="N" fill="#D8D8D8" sketch:type="MSTextLayer" transform="translate(237.324212, 269.511854) rotate(-22.000000) translate(-237.324212, -269.511854) " font-family="Times" font-size="90" font-weight="normal">
                    <tspan x="204.824212" y="301.011854" fill="#000000">N</tspan>
                </text>
                <text id="O-Copy" fill="#D8D8D8" sketch:type="MSTextLayer" transform="translate(163.768940, 293.717258) rotate(-12.000000) translate(-163.768940, -293.717258) " font-family="Times" font-size="90" font-weight="normal">
                    <tspan x="131.26894" y="325.217258" fill="#000000">O</tspan>
                </text>
                <text id="R-Copy" fill="#D8D8D8" sketch:type="MSTextLayer" transform="translate(93.012238, 292.506988) rotate(10.000000) translate(-93.012238, -292.506988) " font-family="Times" font-size="90" font-weight="normal">
                    <tspan x="62.5122381" y="324.006988" fill="#000000">R</tspan>
                </text>
                <path id="Path-37" stroke="#979797" sketch:type="MSShapeGroup" d="M382.70353,198.710644 C398.033594,198.805801 413.363657,198.900957 428.693721,198.996114"></path>
            </g>
        </g>
    </g>
</svg>